# xmcd
#
# Track frame offsets:
#	150
#	13412
#	23500
#	33225
#	44650
#	54475
#	65675
#	78112
#	87887
#	97225
#	108462
#	118237
#	128225
#	138800
#	149037
#	158512
#	171687
#	182750
#	198325
#	210087
#	221725
#	230525
#	240425
#	252012
#	263050
#	271462
#	279337
#	289350
#
# Disc length: 3993
#
# Revision: 2
# Processed by: cddbd v1.5.1PL0 Copyright (c) Steve Scherf et al.
# Submitted via: dBpowerAMP V4.0
# Normalized: r0:TSWAP
#
DISCID=a00f971c
DTITLE=Various Artist - Rockabilly Stars Volume 3
DYEAR=1900
DGENRE=Country
TTITLE0=Little Jimmy Dickens - Hillbilly Fever
TTITLE1=Everly Brothers - That's The Life I HaveTo Live
TTITLE2=Everly Brothers - If Her Love Isn't True
TTITLE3=Collins Kids - Walking The Floor Over You
TTITLE4=Joe Maphis and Larry Collins - Hurricane
TTITLE5=Ronie Self - Rocky Road Blues
TTITLE6=John D Loudermilk - Tobacco Road
TTITLE7=Johnny Cash - Walking The Blues
TTITLE8=Jimmy Murphy - Put Some Meat On Them Bones
TTITLE9=Jimmy Murphy - Grandpaw's Cat
TTITLE10=Cliff Johnson - Go 'Way Hound Dog
TTITLE11=Jimmy Murphy - Sixteen tons Rock And Roll
TTITLE12=Johnny Horton - Ole Slew Foot
TTITLE13=Onie Wheeler - Going Back To The City
TTITLE14=Johnny Horton - I'm Coming Home
TTITLE15=Rose Maddox - Hey Little Dreamboat
TTITLE16=Jaycee Hill - A Love So Fine
TTITLE17=Carl Perkins - That's All Right
TTITLE18=Carl Perkins - Because You're Mine
TTITLE19=Sid King and The Five Strings - Let 'Er Roll
TTITLE20=Werly Fairburn - Everybody's Rockin'
TTITLE21=Bobby Lord - Everbody's Rockin' But Me
TTITLE22=Johnny Horton - Lover's Rock
TTITLE23=Lorrie Collins - Soda Poppin' Around
TTITLE24=Collins Kids - Hot Rod
TTITLE25=Leon Smith - Little Forty Ford
TTITLE26=Carl Perkins - Pop, Let Me Have The Car
TTITLE27=Carl Perkins - Rockin' Record Hop
EXTD=
EXTT0=
EXTT1=
EXTT2=
EXTT3=
EXTT4=
EXTT5=
EXTT6=
EXTT7=
EXTT8=
EXTT9=
EXTT10=
EXTT11=
EXTT12=
EXTT13=
EXTT14=
EXTT15=
EXTT16=
EXTT17=
EXTT18=
EXTT19=
EXTT20=
EXTT21=
EXTT22=
EXTT23=
EXTT24=
EXTT25=
EXTT26=
EXTT27=
PLAYORDER=
